Coordinates
version=1
nRows=27
nColumns=12
inDegrees=yes

Units are S.I. units (second, meters, Newtons, ...)
Angles are in degrees

endheader
time	SC_y	SC_z	SC_x	AC_y	AC_z	AC_x	GH_y	GH_z	GH_yy	EL_x	PS_y
       0.0              -46.22          39.84          11.25          56.31           3.26          5.603         -169.5         -11.79         -96.61          121.2          53.58
    0.0294              -46.22          39.84          11.26          56.31          3.261            5.6         -169.4         -11.79         -96.62          121.2          53.59
    0.0588              -46.21          39.84          11.27          56.31          3.261          5.597         -169.4         -11.79         -96.63          121.2          53.61
   0.08821              -46.21          39.84          11.28          56.31          3.261          5.594         -169.3         -11.79         -96.64          121.2          53.62
    0.1176              -46.21          39.83          11.28          56.31          3.262           5.59         -169.3         -11.79         -96.65          121.2          53.63
     0.147               -46.2          39.83          11.29          56.31          3.262          5.587         -169.2         -11.78         -96.66          121.2          53.65
    0.1764               -46.2          39.83          11.31          56.31          3.263          5.583         -169.2         -11.78         -96.68          121.2          53.67
    0.2058              -46.19          39.83          11.32          56.31          3.263          5.578         -169.1         -11.78         -96.69          121.2          53.68
    0.2352              -46.19          39.82          11.33          56.32          3.264          5.574         -169.0         -11.77          -96.7          121.2           53.7
    0.2646              -46.18          39.82          11.34          56.32          3.265          5.569         -169.0         -11.77         -96.72          121.2          53.72
     0.294              -46.18          39.82          11.36          56.32          3.265          5.563         -168.9         -11.77         -96.74          121.2          53.74
    0.3234              -46.17          39.82          11.37          56.32          3.266          5.558         -168.8         -11.76         -96.76          121.2          53.77
    0.3528              -46.17          39.81          11.39          56.32          3.267          5.551         -168.7         -11.76         -96.78          121.2          53.79
    0.3822              -46.16          39.81          11.41          56.33          3.267          5.545         -168.6         -11.76          -96.8          121.2          53.82
    0.4116              -46.15           39.8          11.43          56.33          3.268          5.538         -168.5         -11.75         -96.82          121.2          53.85
     0.441              -46.15           39.8          11.45          56.33          3.269           5.53         -168.4         -11.75         -96.85          121.2          53.88
    0.4704              -46.14          39.79          11.47          56.33           3.27          5.521         -168.2         -11.74         -96.87          121.2          53.91
    0.4998              -46.13          39.79          11.49          56.34          3.271          5.512         -168.1         -11.73         -96.91          121.2          53.95
    0.5292              -46.12          39.78          11.52          56.34          3.273          5.502         -168.0         -11.73         -96.94          121.2          53.99
    0.5586              -46.11          39.78          11.55          56.34          3.274          5.491         -167.8         -11.72         -96.97          121.2          54.04
     0.588               -46.1          39.77          11.58          56.35          3.275          5.479         -167.6         -11.71         -97.01          121.1          54.09
    0.6174              -46.08          39.76          11.62          56.35          3.277          5.465         -167.4          -11.7         -97.06          121.1          54.14
    0.6468              -46.07          39.75          11.66          56.36          3.279          5.451         -167.2         -11.69         -97.11          121.1           54.2
    0.6762              -46.05          39.74           11.7          56.36          3.281          5.434         -167.0         -11.68         -97.16          121.1          54.26
    0.7056              -46.03          39.73          11.75          56.37          3.283          5.416         -166.7         -11.67         -97.22          121.1          54.34
     0.735              -46.01          39.72           11.8          56.38          3.285          5.396         -166.4         -11.66         -97.28          121.1          54.42
    0.7645              -45.99          39.71          11.86          56.38          3.288          5.373         -166.0         -11.64         -97.36          121.1          54.51
